# xmcd CD database file
#
# Track frame offsets:
#	187
#	17602
#	40495
#	61117
#	78275
#	90867
#	108340
#	128147
#	146365
#	163670
#	182277
#	216785
#	236822
#	253762
#	267387
#	286860
#	300825
#	313810
#
# Disc length: 4389 seconds
#
# Revision: 0
# Processed by: cddbd v1.4PL0 Copyright (c) Steve Scherf et al.
# Submitted via: CDex 1.51
#
DISCID=e8112312
DTITLE=An MCA Nashville Sampler - Untamed and True
DYEAR=1994
DGENRE=Country
TTITLE0=What A Crying Shame
TTITLE1=I Should Have Been True
TTITLE2=Funny How Time Slips Away
TTITLE3=I Fall To Pieces
TTITLE4=I Ain't Giving Up On Love
TTITLE5=That's What Loves About
TTITLE6=Everything You Want Me To Be
TTITLE7=I Won't Stand In Line
TTITLE8=I Don't Fall In Love So Easy
TTITLE9=Let The Picture Paint Itself
TTITLE10=Fruitcakes
TTITLE11=Oye, Isabel
TTITLE12=Dust On The Bottle
TTITLE13=Just Once
TTITLE14=Whenever You Come Around
TTITLE15=What The Cowgirls Do
TTITLE16=Lifestyles Of The Not So Rich And Famous
TTITLE17=No Ordinary Man
EXTD=YEAR: 1994
EXTT0=
EXTT1=
EXTT2=
EXTT3=
EXTT4=
EXTT5=
EXTT6=
EXTT7=
EXTT8=
EXTT9=
EXTT10=
EXTT11=
EXTT12=
EXTT13=
EXTT14=
EXTT15=
EXTT16=
EXTT17=
PLAYORDER=
